<?xml version="1.0" encoding="utf-8" standalone="no"?>
<!DOCTYPE svg PUBLIC "-//W3C//DTD SVG 1.1//EN"
  "http://www.w3.org/Graphics/SVG/1.1/DTD/svg11.dtd">
<svg xmlns:xlink="http://www.w3.org/1999/xlink" width="1080pt" height="720pt" viewBox="0 0 1080 720" xmlns="http://www.w3.org/2000/svg" version="1.1">
 <metadata>
  <rdf:RDF xmlns:dc="http://purl.org/dc/elements/1.1/" xmlns:cc="http://creativecommons.org/ns#" xmlns:rdf="http://www.w3.org/1999/02/22-rdf-syntax-ns#">
   <cc:Work>
    <dc:type rdf:resource="http://purl.org/dc/dcmitype/StillImage"/>
    <dc:date>2023-09-13T20:07:57.252288</dc:date>
    <dc:format>image/svg+xml</dc:format>
    <dc:creator>
     <cc:Agent>
      <dc:title>Matplotlib v3.7.1, https://matplotlib.org/</dc:title>
     </cc:Agent>
    </dc:creator>
   </cc:Work>
  </rdf:RDF>
 </metadata>
 <defs>
  <style type="text/css">*{stroke-linejoin: round; stroke-linecap: butt}</style>
 </defs>
 <g id="figure_1">
  <g id="patch_1">
   <path d="M 0 720 
L 1080 720 
L 1080 0 
L 0 0 
z
" style="fill: #ffffff"/>
  </g>
  <g id="axes_1">
   <g id="LineCollection_1">
    <path d="M 899.367769 287.236364 
L 207.632231 226.145455 
" clip-path="url(#pb8dcd6a8d0)" style="fill: none; stroke: #808080; stroke-opacity: 0.7; stroke-width: 10.6"/>
    <path d="M 899.367769 287.236364 
L 207.632231 470.509091 
" clip-path="url(#pb8dcd6a8d0)" style="fill: none; stroke: #808080; stroke-opacity: 0.7; stroke-width: 20.6"/>
    <path d="M 899.367769 287.236364 
L 207.632231 287.236364 
" clip-path="url(#pb8dcd6a8d0)" style="fill: none; stroke: #808080; stroke-opacity: 0.7; stroke-width: 4.7"/>
    <path d="M 899.367769 287.236364 
L 207.632231 378.872727 
" clip-path="url(#pb8dcd6a8d0)" style="fill: none; stroke: #808080; stroke-opacity: 0.7; stroke-width: 2.2"/>
    <path d="M 899.367769 236.327273 
L 207.632231 531.6 
" clip-path="url(#pb8dcd6a8d0)" style="fill: none; stroke: #808080; stroke-opacity: 0.7; stroke-width: 2.8"/>
    <path d="M 899.367769 236.327273 
L 207.632231 226.145455 
" clip-path="url(#pb8dcd6a8d0)" style="fill: none; stroke: #808080; stroke-opacity: 0.7; stroke-width: 7.4"/>
    <path d="M 899.367769 236.327273 
L 207.632231 470.509091 
" clip-path="url(#pb8dcd6a8d0)" style="fill: none; stroke: #808080; stroke-opacity: 0.7; stroke-width: 5.6"/>
    <path d="M 899.367769 236.327273 
L 207.632231 165.054545 
" clip-path="url(#pb8dcd6a8d0)" style="fill: none; stroke: #808080; stroke-opacity: 0.7; stroke-width: 7.8"/>
    <path d="M 899.367769 236.327273 
L 207.632231 317.781818 
" clip-path="url(#pb8dcd6a8d0)" style="fill: none; stroke: #808080; stroke-opacity: 0.7; stroke-width: 2.5"/>
    <path d="M 899.367769 236.327273 
L 207.632231 562.145455 
" clip-path="url(#pb8dcd6a8d0)" style="fill: none; stroke: #808080; stroke-opacity: 0.7; stroke-width: 3.4"/>
    <path d="M 899.367769 389.054545 
L 207.632231 165.054545 
" clip-path="url(#pb8dcd6a8d0)" style="fill: none; stroke: #808080; stroke-opacity: 0.7; stroke-width: 3.5"/>
    <path d="M 899.367769 389.054545 
L 207.632231 256.690909 
" clip-path="url(#pb8dcd6a8d0)" style="fill: none; stroke: #808080; stroke-opacity: 0.7; stroke-width: 2.6"/>
    <path d="M 899.367769 389.054545 
L 207.632231 317.781818 
" clip-path="url(#pb8dcd6a8d0)" style="fill: none; stroke: #808080; stroke-opacity: 0.7; stroke-width: 13.3"/>
    <path d="M 899.367769 389.054545 
L 207.632231 409.418182 
" clip-path="url(#pb8dcd6a8d0)" style="fill: none; stroke: #808080; stroke-opacity: 0.7; stroke-width: 1.8"/>
    <path d="M 899.367769 541.781818 
L 207.632231 501.054545 
" clip-path="url(#pb8dcd6a8d0)" style="fill: none; stroke: #808080; stroke-opacity: 0.7; stroke-width: 2.5"/>
    <path d="M 899.367769 541.781818 
L 207.632231 317.781818 
" clip-path="url(#pb8dcd6a8d0)" style="fill: none; stroke: #808080; stroke-opacity: 0.7; stroke-width: 2.7"/>
    <path d="M 899.367769 541.781818 
L 207.632231 439.963636 
" clip-path="url(#pb8dcd6a8d0)" style="fill: none; stroke: #808080; stroke-opacity: 0.7; stroke-width: 1.6"/>
    <path d="M 899.367769 541.781818 
L 207.632231 195.6 
" clip-path="url(#pb8dcd6a8d0)" style="fill: none; stroke: #808080; stroke-opacity: 0.7; stroke-width: 2"/>
    <path d="M 899.367769 338.145455 
L 207.632231 592.690909 
" clip-path="url(#pb8dcd6a8d0)" style="fill: none; stroke: #808080; stroke-opacity: 0.7; stroke-width: 2.7"/>
    <path d="M 899.367769 338.145455 
L 207.632231 348.327273 
" clip-path="url(#pb8dcd6a8d0)" style="fill: none; stroke: #808080; stroke-opacity: 0.7; stroke-width: 3"/>
    <path d="M 899.367769 185.418182 
L 207.632231 195.6 
" clip-path="url(#pb8dcd6a8d0)" style="fill: none; stroke: #808080; stroke-opacity: 0.7; stroke-width: 9.2"/>
    <path d="M 899.367769 134.509091 
L 207.632231 409.418182 
" clip-path="url(#pb8dcd6a8d0)" style="fill: none; stroke: #808080; stroke-opacity: 0.7; stroke-width: 3.9"/>
    <path d="M 899.367769 490.872727 
L 207.632231 165.054545 
" clip-path="url(#pb8dcd6a8d0)" style="fill: none; stroke: #808080; stroke-opacity: 0.7; stroke-width: 4.3"/>
    <path d="M 899.367769 592.690909 
L 207.632231 134.509091 
" clip-path="url(#pb8dcd6a8d0)" style="fill: none; stroke: #808080; stroke-opacity: 0.7; stroke-width: 7.4"/>
    <path d="M 899.367769 439.963636 
L 207.632231 470.509091 
" clip-path="url(#pb8dcd6a8d0)" style="fill: none; stroke: #808080; stroke-opacity: 0.7; stroke-width: 2.3"/>
   </g>
   <g id="PathCollection_1">
    <defs>
     <path id="m331a806907" d="M 0 10 
C 2.652031 10 5.195799 8.946337 7.071068 7.071068 
C 8.946337 5.195799 10 2.652031 10 0 
C 10 -2.652031 8.946337 -5.195799 7.071068 -7.071068 
C 5.195799 -8.946337 2.652031 -10 0 -10 
C -2.652031 -10 -5.195799 -8.946337 -7.071068 -7.071068 
C -8.946337 -5.195799 -10 -2.652031 -10 0 
C -10 2.652031 -8.946337 5.195799 -7.071068 7.071068 
C -5.195799 8.946337 -2.652031 10 0 10 
z
" style="stroke: #add8e6; stroke-opacity: 0.7"/>
    </defs>
    <g clip-path="url(#pb8dcd6a8d0)">
     <use xlink:href="#m331a806907" x="899.367769" y="287.236364" style="fill: #add8e6; fill-opacity: 0.7; stroke: #add8e6; stroke-opacity: 0.7"/>
     <use xlink:href="#m331a806907" x="899.367769" y="236.327273" style="fill: #add8e6; fill-opacity: 0.7; stroke: #add8e6; stroke-opacity: 0.7"/>
     <use xlink:href="#m331a806907" x="899.367769" y="389.054545" style="fill: #add8e6; fill-opacity: 0.7; stroke: #add8e6; stroke-opacity: 0.7"/>
     <use xlink:href="#m331a806907" x="899.367769" y="541.781818" style="fill: #add8e6; fill-opacity: 0.7; stroke: #add8e6; stroke-opacity: 0.7"/>
     <use xlink:href="#m331a806907" x="899.367769" y="338.145455" style="fill: #add8e6; fill-opacity: 0.7; stroke: #add8e6; stroke-opacity: 0.7"/>
     <use xlink:href="#m331a806907" x="899.367769" y="185.418182" style="fill: #add8e6; fill-opacity: 0.7; stroke: #add8e6; stroke-opacity: 0.7"/>
     <use xlink:href="#m331a806907" x="899.367769" y="134.509091" style="fill: #add8e6; fill-opacity: 0.7; stroke: #add8e6; stroke-opacity: 0.7"/>
     <use xlink:href="#m331a806907" x="899.367769" y="490.872727" style="fill: #add8e6; fill-opacity: 0.7; stroke: #add8e6; stroke-opacity: 0.7"/>
     <use xlink:href="#m331a806907" x="899.367769" y="592.690909" style="fill: #add8e6; fill-opacity: 0.7; stroke: #add8e6; stroke-opacity: 0.7"/>
     <use xlink:href="#m331a806907" x="899.367769" y="439.963636" style="fill: #add8e6; fill-opacity: 0.7; stroke: #add8e6; stroke-opacity: 0.7"/>
     <use xlink:href="#m331a806907" x="207.632231" y="531.6" style="fill: #add8e6; fill-opacity: 0.7; stroke: #add8e6; stroke-opacity: 0.7"/>
     <use xlink:href="#m331a806907" x="207.632231" y="226.145455" style="fill: #add8e6; fill-opacity: 0.7; stroke: #add8e6; stroke-opacity: 0.7"/>
     <use xlink:href="#m331a806907" x="207.632231" y="592.690909" style="fill: #add8e6; fill-opacity: 0.7; stroke: #add8e6; stroke-opacity: 0.7"/>
     <use xlink:href="#m331a806907" x="207.632231" y="470.509091" style="fill: #add8e6; fill-opacity: 0.7; stroke: #add8e6; stroke-opacity: 0.7"/>
     <use xlink:href="#m331a806907" x="207.632231" y="287.236364" style="fill: #add8e6; fill-opacity: 0.7; stroke: #add8e6; stroke-opacity: 0.7"/>
     <use xlink:href="#m331a806907" x="207.632231" y="165.054545" style="fill: #add8e6; fill-opacity: 0.7; stroke: #add8e6; stroke-opacity: 0.7"/>
     <use xlink:href="#m331a806907" x="207.632231" y="256.690909" style="fill: #add8e6; fill-opacity: 0.7; stroke: #add8e6; stroke-opacity: 0.7"/>
     <use xlink:href="#m331a806907" x="207.632231" y="501.054545" style="fill: #add8e6; fill-opacity: 0.7; stroke: #add8e6; stroke-opacity: 0.7"/>
     <use xlink:href="#m331a806907" x="207.632231" y="317.781818" style="fill: #add8e6; fill-opacity: 0.7; stroke: #add8e6; stroke-opacity: 0.7"/>
     <use xlink:href="#m331a806907" x="207.632231" y="439.963636" style="fill: #add8e6; fill-opacity: 0.7; stroke: #add8e6; stroke-opacity: 0.7"/>
     <use xlink:href="#m331a806907" x="207.632231" y="409.418182" style="fill: #add8e6; fill-opacity: 0.7; stroke: #add8e6; stroke-opacity: 0.7"/>
     <use xlink:href="#m331a806907" x="207.632231" y="562.145455" style="fill: #add8e6; fill-opacity: 0.7; stroke: #add8e6; stroke-opacity: 0.7"/>
     <use xlink:href="#m331a806907" x="207.632231" y="195.6" style="fill: #add8e6; fill-opacity: 0.7; stroke: #add8e6; stroke-opacity: 0.7"/>
     <use xlink:href="#m331a806907" x="207.632231" y="348.327273" style="fill: #add8e6; fill-opacity: 0.7; stroke: #add8e6; stroke-opacity: 0.7"/>
     <use xlink:href="#m331a806907" x="207.632231" y="378.872727" style="fill: #add8e6; fill-opacity: 0.7; stroke: #add8e6; stroke-opacity: 0.7"/>
     <use xlink:href="#m331a806907" x="207.632231" y="134.509091" style="fill: #add8e6; fill-opacity: 0.7; stroke: #add8e6; stroke-opacity: 0.7"/>
    </g>
   </g>
   <g id="text_1">
    <g clip-path="url(#pb8dcd6a8d0)">
     <!-- Dresler, Jaroslav -->
     <g style="opacity: 0.7" transform="translate(850.489331 290.547614) scale(0.12 -0.12)">
      <defs>
       <path id="DejaVuSans-44" d="M 1259 4147 
L 1259 519 
L 2022 519 
Q 2988 519 3436 956 
Q 3884 1394 3884 2338 
Q 3884 3275 3436 3711 
Q 2988 4147 2022 4147 
L 1259 4147 
z
M 628 4666 
L 1925 4666 
Q 3281 4666 3915 4102 
Q 4550 3538 4550 2338 
Q 4550 1131 3912 565 
Q 3275 0 1925 0 
L 628 0 
L 628 4666 
z
" transform="scale(0.015625)"/>
       <path id="DejaVuSans-72" d="M 2631 2963 
Q 2534 3019 2420 3045 
Q 2306 3072 2169 3072 
Q 1681 3072 1420 2755 
Q 1159 2438 1159 1844 
L 1159 0 
L 581 0 
L 581 3500 
L 1159 3500 
L 1159 2956 
Q 1341 3275 1631 3429 
Q 1922 3584 2338 3584 
Q 2397 3584 2469 3576 
Q 2541 3569 2628 3553 
L 2631 2963 
z
" transform="scale(0.015625)"/>
       <path id="DejaVuSans-65" d="M 3597 1894 
L 3597 1613 
L 953 1613 
Q 991 1019 1311 708 
Q 1631 397 2203 397 
Q 2534 397 2845 478 
Q 3156 559 3463 722 
L 3463 178 
Q 3153 47 2828 -22 
Q 2503 -91 2169 -91 
Q 1331 -91 842 396 
Q 353 884 353 1716 
Q 353 2575 817 3079 
Q 1281 3584 2069 3584 
Q 2775 3584 3186 3129 
Q 3597 2675 3597 1894 
z
M 3022 2063 
Q 3016 2534 2758 2815 
Q 2500 3097 2075 3097 
Q 1594 3097 1305 2825 
Q 1016 2553 972 2059 
L 3022 2063 
z
" transform="scale(0.015625)"/>
       <path id="DejaVuSans-73" d="M 2834 3397 
L 2834 2853 
Q 2591 2978 2328 3040 
Q 2066 3103 1784 3103 
Q 1356 3103 1142 2972 
Q 928 2841 928 2578 
Q 928 2378 1081 2264 
Q 1234 2150 1697 2047 
L 1894 2003 
Q 2506 1872 2764 1633 
Q 3022 1394 3022 966 
Q 3022 478 2636 193 
Q 2250 -91 1575 -91 
Q 1294 -91 989 -36 
Q 684 19 347 128 
L 347 722 
Q 666 556 975 473 
Q 1284 391 1588 391 
Q 1994 391 2212 530 
Q 2431 669 2431 922 
Q 2431 1156 2273 1281 
Q 2116 1406 1581 1522 
L 1381 1569 
Q 847 1681 609 1914 
Q 372 2147 372 2553 
Q 372 3047 722 3315 
Q 1072 3584 1716 3584 
Q 2034 3584 2315 3537 
Q 2597 3491 2834 3397 
z
" transform="scale(0.015625)"/>
       <path id="DejaVuSans-6c" d="M 603 4863 
L 1178 4863 
L 1178 0 
L 603 0 
L 603 4863 
z
" transform="scale(0.015625)"/>
       <path id="DejaVuSans-2c" d="M 750 794 
L 1409 794 
L 1409 256 
L 897 -744 
L 494 -744 
L 750 256 
L 750 794 
z
" transform="scale(0.015625)"/>
       <path id="DejaVuSans-20" transform="scale(0.015625)"/>
       <path id="DejaVuSans-4a" d="M 628 4666 
L 1259 4666 
L 1259 325 
Q 1259 -519 939 -900 
Q 619 -1281 -91 -1281 
L -331 -1281 
L -331 -750 
L -134 -750 
Q 284 -750 456 -515 
Q 628 -281 628 325 
L 628 4666 
z
" transform="scale(0.015625)"/>
       <path id="DejaVuSans-61" d="M 2194 1759 
Q 1497 1759 1228 1600 
Q 959 1441 959 1056 
Q 959 750 1161 570 
Q 1363 391 1709 391 
Q 2188 391 2477 730 
Q 2766 1069 2766 1631 
L 2766 1759 
L 2194 1759 
z
M 3341 1997 
L 3341 0 
L 2766 0 
L 2766 531 
Q 2569 213 2275 61 
Q 1981 -91 1556 -91 
Q 1019 -91 701 211 
Q 384 513 384 1019 
Q 384 1609 779 1909 
Q 1175 2209 1959 2209 
L 2766 2209 
L 2766 2266 
Q 2766 2663 2505 2880 
Q 2244 3097 1772 3097 
Q 1472 3097 1187 3025 
Q 903 2953 641 2809 
L 641 3341 
Q 956 3463 1253 3523 
Q 1550 3584 1831 3584 
Q 2591 3584 2966 3190 
Q 3341 2797 3341 1997 
z
" transform="scale(0.015625)"/>
       <path id="DejaVuSans-6f" d="M 1959 3097 
Q 1497 3097 1228 2736 
Q 959 2375 959 1747 
Q 959 1119 1226 758 
Q 1494 397 1959 397 
Q 2419 397 2687 759 
Q 2956 1122 2956 1747 
Q 2956 2369 2687 2733 
Q 2419 3097 1959 3097 
z
M 1959 3584 
Q 2709 3584 3137 3096 
Q 3566 2609 3566 1747 
Q 3566 888 3137 398 
Q 2709 -91 1959 -91 
Q 1206 -91 779 398 
Q 353 888 353 1747 
Q 353 2609 779 3096 
Q 1206 3584 1959 3584 
z
" transform="scale(0.015625)"/>
       <path id="DejaVuSans-76" d="M 191 3500 
L 800 3500 
L 1894 563 
L 2988 3500 
L 3597 3500 
L 2284 0 
L 1503 0 
L 191 3500 
z
" transform="scale(0.015625)"/>
      </defs>
      <use xlink:href="#DejaVuSans-44"/>
      <use xlink:href="#DejaVuSans-72" x="77.001953"/>
      <use xlink:href="#DejaVuSans-65" x="115.865234"/>
      <use xlink:href="#DejaVuSans-73" x="177.388672"/>
      <use xlink:href="#DejaVuSans-6c" x="229.488281"/>
      <use xlink:href="#DejaVuSans-65" x="257.271484"/>
      <use xlink:href="#DejaVuSans-72" x="318.794922"/>
      <use xlink:href="#DejaVuSans-2c" x="359.908203"/>
      <use xlink:href="#DejaVuSans-20" x="391.695312"/>
      <use xlink:href="#DejaVuSans-4a" x="423.482422"/>
      <use xlink:href="#DejaVuSans-61" x="452.974609"/>
      <use xlink:href="#DejaVuSans-72" x="514.253906"/>
      <use xlink:href="#DejaVuSans-6f" x="553.117188"/>
      <use xlink:href="#DejaVuSans-73" x="614.298828"/>
      <use xlink:href="#DejaVuSans-6c" x="666.398438"/>
      <use xlink:href="#DejaVuSans-61" x="694.181641"/>
      <use xlink:href="#DejaVuSans-76" x="755.460938"/>
     </g>
    </g>
   </g>
   <g id="text_2">
    <g clip-path="url(#pb8dcd6a8d0)">
     <!-- Kratochvil, Antonín -->
     <g style="opacity: 0.7" transform="translate(842.263706 239.638523) scale(0.12 -0.12)">
      <defs>
       <path id="DejaVuSans-4b" d="M 628 4666 
L 1259 4666 
L 1259 2694 
L 3353 4666 
L 4166 4666 
L 1850 2491 
L 4331 0 
L 3500 0 
L 1259 2247 
L 1259 0 
L 628 0 
L 628 4666 
z
" transform="scale(0.015625)"/>
       <path id="DejaVuSans-74" d="M 1172 4494 
L 1172 3500 
L 2356 3500 
L 2356 3053 
L 1172 3053 
L 1172 1153 
Q 1172 725 1289 603 
Q 1406 481 1766 481 
L 2356 481 
L 2356 0 
L 1766 0 
Q 1100 0 847 248 
Q 594 497 594 1153 
L 594 3053 
L 172 3053 
L 172 3500 
L 594 3500 
L 594 4494 
L 1172 4494 
z
" transform="scale(0.015625)"/>
       <path id="DejaVuSans-63" d="M 3122 3366 
L 3122 2828 
Q 2878 2963 2633 3030 
Q 2388 3097 2138 3097 
Q 1578 3097 1268 2742 
Q 959 2388 959 1747 
Q 959 1106 1268 751 
Q 1578 397 2138 397 
Q 2388 397 2633 464 
Q 2878 531 3122 666 
L 3122 134 
Q 2881 22 2623 -34 
Q 2366 -91 2075 -91 
Q 1284 -91 818 406 
Q 353 903 353 1747 
Q 353 2603 823 3093 
Q 1294 3584 2113 3584 
Q 2378 3584 2631 3529 
Q 2884 3475 3122 3366 
z
" transform="scale(0.015625)"/>
       <path id="DejaVuSans-68" d="M 3513 2113 
L 3513 0 
L 2938 0 
L 2938 2094 
Q 2938 2591 2744 2837 
Q 2550 3084 2163 3084 
Q 1697 3084 1428 2787 
Q 1159 2491 1159 1978 
L 1159 0 
L 581 0 
L 581 4863 
L 1159 4863 
L 1159 2956 
Q 1366 3272 1645 3428 
Q 1925 3584 2291 3584 
Q 2894 3584 3203 3211 
Q 3513 2838 3513 2113 
z
" transform="scale(0.015625)"/>
       <path id="DejaVuSans-69" d="M 603 3500 
L 1178 3500 
L 1178 0 
L 603 0 
L 603 3500 
z
M 603 4863 
L 1178 4863 
L 1178 4134 
L 603 4134 
L 603 4863 
z
" transform="scale(0.015625)"/>
       <path id="DejaVuSans-41" d="M 2188 4044 
L 1331 1722 
L 3047 1722 
L 2188 4044 
z
M 1831 4666 
L 2547 4666 
L 4325 0 
L 3669 0 
L 3244 1197 
L 1141 1197 
L 716 0 
L 50 0 
L 1831 4666 
z
" transform="scale(0.015625)"/>
       <path id="DejaVuSans-6e" d="M 3513 2113 
L 3513 0 
L 2938 0 
L 2938 2094 
Q 2938 2591 2744 2837 
Q 2550 3084 2163 3084 
Q 1697 3084 1428 2787 
Q 1159 2491 1159 1978 
L 1159 0 
L 581 0 
L 581 3500 
L 1159 3500 
L 1159 2956 
Q 1366 3272 1645 3428 
Q 1925 3584 2291 3584 
Q 2894 3584 3203 3211 
Q 3513 2838 3513 2113 
z
" transform="scale(0.015625)"/>
       <path id="DejaVuSans-ed" d="M 1322 5119 
L 1944 5119 
L 926 3944 
L 447 3944 
L 1322 5119 
z
M 603 3500 
L 1178 3500 
L 1178 0 
L 603 0 
L 603 3500 
z
M 891 3584 
L 891 3584 
z
" transform="scale(0.015625)"/>
      </defs>
      <use xlink:href="#DejaVuSans-4b"/>
      <use xlink:href="#DejaVuSans-72" x="65.576172"/>
      <use xlink:href="#DejaVuSans-61" x="106.689453"/>
      <use xlink:href="#DejaVuSans-74" x="167.96875"/>
      <use xlink:href="#DejaVuSans-6f" x="207.177734"/>
      <use xlink:href="#DejaVuSans-63" x="268.359375"/>
      <use xlink:href="#DejaVuSans-68" x="323.339844"/>
      <use xlink:href="#DejaVuSans-76" x="386.71875"/>
      <use xlink:href="#DejaVuSans-69" x="445.898438"/>
      <use xlink:href="#DejaVuSans-6c" x="473.681641"/>
      <use xlink:href="#DejaVuSans-2c" x="501.464844"/>
      <use xlink:href="#DejaVuSans-20" x="533.251953"/>
      <use xlink:href="#DejaVuSans-41" x="565.039062"/>
      <use xlink:href="#DejaVuSans-6e" x="633.447266"/>
      <use xlink:href="#DejaVuSans-74" x="696.826172"/>
      <use xlink:href="#DejaVuSans-6f" x="736.035156"/>
      <use xlink:href="#DejaVuSans-6e" x="797.216797"/>
      <use xlink:href="#DejaVuSans-ed" x="860.595703"/>
      <use xlink:href="#DejaVuSans-6e" x="888.378906"/>
     </g>
    </g>
   </g>
   <g id="text_3">
    <g clip-path="url(#pb8dcd6a8d0)">
     <!-- Den, Petr -->
     <g style="opacity: 0.7" transform="translate(871.528706 392.365795) scale(0.12 -0.12)">
      <defs>
       <path id="DejaVuSans-50" d="M 1259 4147 
L 1259 2394 
L 2053 2394 
Q 2494 2394 2734 2622 
Q 2975 2850 2975 3272 
Q 2975 3691 2734 3919 
Q 2494 4147 2053 4147 
L 1259 4147 
z
M 628 4666 
L 2053 4666 
Q 2838 4666 3239 4311 
Q 3641 3956 3641 3272 
Q 3641 2581 3239 2228 
Q 2838 1875 2053 1875 
L 1259 1875 
L 1259 0 
L 628 0 
L 628 4666 
z
" transform="scale(0.015625)"/>
      </defs>
      <use xlink:href="#DejaVuSans-44"/>
      <use xlink:href="#DejaVuSans-65" x="77.001953"/>
      <use xlink:href="#DejaVuSans-6e" x="138.525391"/>
      <use xlink:href="#DejaVuSans-2c" x="201.904297"/>
      <use xlink:href="#DejaVuSans-20" x="233.691406"/>
      <use xlink:href="#DejaVuSans-50" x="265.478516"/>
      <use xlink:href="#DejaVuSans-65" x="322.15625"/>
      <use xlink:href="#DejaVuSans-74" x="383.679688"/>
      <use xlink:href="#DejaVuSans-72" x="422.888672"/>
     </g>
    </g>
   </g>
   <g id="text_4">
    <g clip-path="url(#pb8dcd6a8d0)">
     <!-- Měšťan, Antonín -->
     <g style="opacity: 0.7" transform="translate(850.525894 545.093068) scale(0.12 -0.12)">
      <defs>
       <path id="DejaVuSans-4d" d="M 628 4666 
L 1569 4666 
L 2759 1491 
L 3956 4666 
L 4897 4666 
L 4897 0 
L 4281 0 
L 4281 4097 
L 3078 897 
L 2444 897 
L 1241 4097 
L 1241 0 
L 628 0 
L 628 4666 
z
" transform="scale(0.015625)"/>
       <path id="DejaVuSans-11b" d="M 3597 1894 
L 3597 1613 
L 953 1613 
Q 991 1019 1311 708 
Q 1631 397 2203 397 
Q 2534 397 2845 478 
Q 3156 559 3463 722 
L 3463 178 
Q 3153 47 2828 -22 
Q 2503 -91 2169 -91 
Q 1331 -91 842 396 
Q 353 884 353 1716 
Q 353 2575 817 3079 
Q 1281 3584 2069 3584 
Q 2775 3584 3186 3129 
Q 3597 2675 3597 1894 
z
M 3022 2063 
Q 3016 2534 2758 2815 
Q 2500 3097 2075 3097 
Q 1594 3097 1305 2825 
Q 1016 2553 972 2059 
L 3022 2063 
z
M 1833 3944 
L 1067 5119 
L 1502 5119 
L 2064 4353 
L 2627 5119 
L 3061 5119 
L 2295 3944 
L 1833 3944 
z
" transform="scale(0.015625)"/>
       <path id="DejaVuSans-161" d="M 2834 3397 
L 2834 2853 
Q 2591 2978 2328 3040 
Q 2066 3103 1784 3103 
Q 1356 3103 1142 2972 
Q 928 2841 928 2578 
Q 928 2378 1081 2264 
Q 1234 2150 1697 2047 
L 1894 2003 
Q 2506 1872 2764 1633 
Q 3022 1394 3022 966 
Q 3022 478 2636 193 
Q 2250 -91 1575 -91 
Q 1294 -91 989 -36 
Q 684 19 347 128 
L 347 722 
Q 666 556 975 473 
Q 1284 391 1588 391 
Q 1994 391 2212 530 
Q 2431 669 2431 922 
Q 2431 1156 2273 1281 
Q 2116 1406 1581 1522 
L 1381 1569 
Q 847 1681 609 1914 
Q 372 2147 372 2553 
Q 372 3047 722 3315 
Q 1072 3584 1716 3584 
Q 2034 3584 2315 3537 
Q 2597 3491 2834 3397 
z
M 1501 3944 
L 736 5119 
L 1170 5119 
L 1733 4353 
L 2295 5119 
L 2729 5119 
L 1964 3944 
L 1501 3944 
z
M 1720 3584 
L 1720 3584 
z
" transform="scale(0.015625)"/>
       <path id="DejaVuSans-165" d="M 1172 4494 
L 1172 3500 
L 2356 3500 
L 2356 3053 
L 1172 3053 
L 1172 1153 
Q 1172 725 1289 603 
Q 1406 481 1766 481 
L 2356 481 
L 2356 0 
L 1766 0 
Q 1100 0 847 248 
Q 594 497 594 1153 
L 594 3053 
L 172 3053 
L 172 3500 
L 594 3500 
L 594 4494 
L 1172 4494 
z
M 1768 5176 
L 2390 5176 
L 2024 4001 
L 1546 4001 
L 1768 5176 
z
" transform="scale(0.015625)"/>
      </defs>
      <use xlink:href="#DejaVuSans-4d"/>
      <use xlink:href="#DejaVuSans-11b" x="86.279297"/>
      <use xlink:href="#DejaVuSans-161" x="147.802734"/>
      <use xlink:href="#DejaVuSans-165" x="199.902344"/>
      <use xlink:href="#DejaVuSans-61" x="239.111328"/>
      <use xlink:href="#DejaVuSans-6e" x="300.390625"/>
      <use xlink:href="#DejaVuSans-2c" x="363.769531"/>
      <use xlink:href="#DejaVuSans-20" x="395.556641"/>
      <use xlink:href="#DejaVuSans-41" x="427.34375"/>
      <use xlink:href="#DejaVuSans-6e" x="495.751953"/>
      <use xlink:href="#DejaVuSans-74" x="559.130859"/>
      <use xlink:href="#DejaVuSans-6f" x="598.339844"/>
      <use xlink:href="#DejaVuSans-6e" x="659.521484"/>
      <use xlink:href="#DejaVuSans-ed" x="722.900391"/>
      <use xlink:href="#DejaVuSans-6e" x="750.683594"/>
     </g>
    </g>
   </g>
   <g id="text_5">
    <g clip-path="url(#pb8dcd6a8d0)">
     <!-- Škvorecký, Josef -->
     <g style="opacity: 0.7" transform="translate(850.546519 342.454205) scale(0.12 -0.12)">
      <defs>
       <path id="DejaVuSans-160" d="M 3425 4513 
L 3425 3897 
Q 3066 4069 2747 4153 
Q 2428 4238 2131 4238 
Q 1616 4238 1336 4038 
Q 1056 3838 1056 3469 
Q 1056 3159 1242 3001 
Q 1428 2844 1947 2747 
L 2328 2669 
Q 3034 2534 3370 2195 
Q 3706 1856 3706 1288 
Q 3706 609 3251 259 
Q 2797 -91 1919 -91 
Q 1588 -91 1214 -16 
Q 841 59 441 206 
L 441 856 
Q 825 641 1194 531 
Q 1563 422 1919 422 
Q 2459 422 2753 634 
Q 3047 847 3047 1241 
Q 3047 1584 2836 1778 
Q 2625 1972 2144 2069 
L 1759 2144 
Q 1053 2284 737 2584 
Q 422 2884 422 3419 
Q 422 4038 858 4394 
Q 1294 4750 2059 4750 
Q 2388 4750 2728 4690 
Q 3069 4631 3425 4513 
z
M 1738 5096 
L 1079 5927 
L 1513 5927 
L 2032 5371 
L 2551 5927 
L 2985 5927 
L 2326 5096 
L 1738 5096 
z
" transform="scale(0.015625)"/>
       <path id="DejaVuSans-6b" d="M 581 4863 
L 1159 4863 
L 1159 1991 
L 2875 3500 
L 3609 3500 
L 1753 1863 
L 3688 0 
L 2938 0 
L 1159 1709 
L 1159 0 
L 581 0 
L 581 4863 
z
" transform="scale(0.015625)"/>
       <path id="DejaVuSans-fd" d="M 2059 -325 
Q 1816 -950 1584 -1140 
Q 1353 -1331 966 -1331 
L 506 -1331 
L 506 -850 
L 844 -850 
Q 1081 -850 1212 -737 
Q 1344 -625 1503 -206 
L 1606 56 
L 191 3500 
L 800 3500 
L 1894 763 
L 2988 3500 
L 3597 3500 
L 2059 -325 
z
M 2330 5119 
L 2952 5119 
L 1934 3944 
L 1455 3944 
L 2330 5119 
z
" transform="scale(0.015625)"/>
       <path id="DejaVuSans-66" d="M 2375 4863 
L 2375 4384 
L 1825 4384 
Q 1516 4384 1395 4259 
Q 1275 4134 1275 3809 
L 1275 3500 
L 2222 3500 
L 2222 3053 
L 1275 3053 
L 1275 0 
L 697 0 
L 697 3053 
L 147 3053 
L 147 3500 
L 697 3500 
L 697 3744 
Q 697 4328 969 4595 
Q 1241 4863 1831 4863 
L 2375 4863 
z
" transform="scale(0.015625)"/>
      </defs>
      <use xlink:href="#DejaVuSans-160"/>
      <use xlink:href="#DejaVuSans-6b" x="63.476562"/>
      <use xlink:href="#DejaVuSans-76" x="121.386719"/>
      <use xlink:href="#DejaVuSans-6f" x="180.566406"/>
      <use xlink:href="#DejaVuSans-72" x="241.748047"/>
      <use xlink:href="#DejaVuSans-65" x="280.611328"/>
      <use xlink:href="#DejaVuSans-63" x="342.134766"/>
      <use xlink:href="#DejaVuSans-6b" x="397.115234"/>
      <use xlink:href="#DejaVuSans-fd" x="451.400391"/>
      <use xlink:href="#DejaVuSans-2c" x="510.580078"/>
      <use xlink:href="#DejaVuSans-20" x="542.367188"/>
      <use xlink:href="#DejaVuSans-4a" x="574.154297"/>
      <use xlink:href="#DejaVuSans-6f" x="603.646484"/>
      <use xlink:href="#DejaVuSans-73" x="664.828125"/>
      <use xlink:href="#DejaVuSans-65" x="716.927734"/>
      <use xlink:href="#DejaVuSans-66" x="778.451172"/>
     </g>
    </g>
   </g>
   <g id="text_6">
    <g clip-path="url(#pb8dcd6a8d0)">
     <!-- Kovtun, Jiří -->
     <g style="opacity: 0.7" transform="translate(867.169331 188.922557) scale(0.12 -0.12)">
      <defs>
       <path id="DejaVuSans-75" d="M 544 1381 
L 544 3500 
L 1119 3500 
L 1119 1403 
Q 1119 906 1312 657 
Q 1506 409 1894 409 
Q 2359 409 2629 706 
Q 2900 1003 2900 1516 
L 2900 3500 
L 3475 3500 
L 3475 0 
L 2900 0 
L 2900 538 
Q 2691 219 2414 64 
Q 2138 -91 1772 -91 
Q 1169 -91 856 284 
Q 544 659 544 1381 
z
M 1991 3584 
L 1991 3584 
z
" transform="scale(0.015625)"/>
       <path id="DejaVuSans-159" d="M 2631 2963 
Q 2534 3019 2420 3045 
Q 2306 3072 2169 3072 
Q 1681 3072 1420 2755 
Q 1159 2438 1159 1844 
L 1159 0 
L 581 0 
L 581 3500 
L 1159 3500 
L 1159 2956 
Q 1341 3275 1631 3429 
Q 1922 3584 2338 3584 
Q 2397 3584 2469 3576 
Q 2541 3569 2628 3553 
L 2631 2963 
z
M 1457 3944 
L 691 5119 
L 1126 5119 
L 1688 4353 
L 2251 5119 
L 2685 5119 
L 1919 3944 
L 1457 3944 
z
" transform="scale(0.015625)"/>
      </defs>
      <use xlink:href="#DejaVuSans-4b"/>
      <use xlink:href="#DejaVuSans-6f" x="60.576172"/>
      <use xlink:href="#DejaVuSans-76" x="121.757812"/>
      <use xlink:href="#DejaVuSans-74" x="180.9375"/>
      <use xlink:href="#DejaVuSans-75" x="220.146484"/>
      <use xlink:href="#DejaVuSans-6e" x="283.525391"/>
      <use xlink:href="#DejaVuSans-2c" x="346.904297"/>
      <use xlink:href="#DejaVuSans-20" x="378.691406"/>
      <use xlink:href="#DejaVuSans-4a" x="410.478516"/>
      <use xlink:href="#DejaVuSans-69" x="439.970703"/>
      <use xlink:href="#DejaVuSans-159" x="467.753906"/>
      <use xlink:href="#DejaVuSans-ed" x="508.867188"/>
     </g>
    </g>
   </g>
   <g id="text_7">
    <g clip-path="url(#pb8dcd6a8d0)">
     <!-- Vlach, Robert -->
     <g style="opacity: 0.7" transform="translate(859.114331 137.820341) scale(0.12 -0.12)">
      <defs>
       <path id="DejaVuSans-56" d="M 1831 0 
L 50 4666 
L 709 4666 
L 2188 738 
L 3669 4666 
L 4325 4666 
L 2547 0 
L 1831 0 
z
" transform="scale(0.015625)"/>
       <path id="DejaVuSans-52" d="M 2841 2188 
Q 3044 2119 3236 1894 
Q 3428 1669 3622 1275 
L 4263 0 
L 3584 0 
L 2988 1197 
Q 2756 1666 2539 1819 
Q 2322 1972 1947 1972 
L 1259 1972 
L 1259 0 
L 628 0 
L 628 4666 
L 2053 4666 
Q 2853 4666 3247 4331 
Q 3641 3997 3641 3322 
Q 3641 2881 3436 2590 
Q 3231 2300 2841 2188 
z
M 1259 4147 
L 1259 2491 
L 2053 2491 
Q 2509 2491 2742 2702 
Q 2975 2913 2975 3322 
Q 2975 3731 2742 3939 
Q 2509 4147 2053 4147 
L 1259 4147 
z
" transform="scale(0.015625)"/>
       <path id="DejaVuSans-62" d="M 3116 1747 
Q 3116 2381 2855 2742 
Q 2594 3103 2138 3103 
Q 1681 3103 1420 2742 
Q 1159 2381 1159 1747 
Q 1159 1113 1420 752 
Q 1681 391 2138 391 
Q 2594 391 2855 752 
Q 3116 1113 3116 1747 
z
M 1159 2969 
Q 1341 3281 1617 3432 
Q 1894 3584 2278 3584 
Q 2916 3584 3314 3078 
Q 3713 2572 3713 1747 
Q 3713 922 3314 415 
Q 2916 -91 2278 -91 
Q 1894 -91 1617 61 
Q 1341 213 1159 525 
L 1159 0 
L 581 0 
L 581 4863 
L 1159 4863 
L 1159 2969 
z
" transform="scale(0.015625)"/>
      </defs>
      <use xlink:href="#DejaVuSans-56"/>
      <use xlink:href="#DejaVuSans-6c" x="68.408203"/>
      <use xlink:href="#DejaVuSans-61" x="96.191406"/>
      <use xlink:href="#DejaVuSans-63" x="157.470703"/>
      <use xlink:href="#DejaVuSans-68" x="212.451172"/>
      <use xlink:href="#DejaVuSans-2c" x="275.830078"/>
      <use xlink:href="#DejaVuSans-20" x="307.617188"/>
      <use xlink:href="#DejaVuSans-52" x="339.404297"/>
      <use xlink:href="#DejaVuSans-6f" x="404.386719"/>
      <use xlink:href="#DejaVuSans-62" x="465.568359"/>
      <use xlink:href="#DejaVuSans-65" x="529.044922"/>
      <use xlink:href="#DejaVuSans-72" x="590.568359"/>
      <use xlink:href="#DejaVuSans-74" x="631.681641"/>
     </g>
    </g>
   </g>
   <g id="text_8">
    <g clip-path="url(#pb8dcd6a8d0)">
     <!-- Želivan, Pavel -->
     <g style="opacity: 0.7" transform="translate(857.453081 494.631165) scale(0.12 -0.12)">
      <defs>
       <path id="DejaVuSans-17d" d="M 359 4666 
L 4025 4666 
L 4025 4184 
L 1075 531 
L 4097 531 
L 4097 0 
L 288 0 
L 288 481 
L 3238 4134 
L 359 4134 
L 359 4666 
z
M 1898 5096 
L 1239 5927 
L 1673 5927 
L 2192 5371 
L 2711 5927 
L 3145 5927 
L 2486 5096 
L 1898 5096 
z
" transform="scale(0.015625)"/>
      </defs>
      <use xlink:href="#DejaVuSans-17d"/>
      <use xlink:href="#DejaVuSans-65" x="68.505859"/>
      <use xlink:href="#DejaVuSans-6c" x="130.029297"/>
      <use xlink:href="#DejaVuSans-69" x="157.8125"/>
      <use xlink:href="#DejaVuSans-76" x="185.595703"/>
      <use xlink:href="#DejaVuSans-61" x="244.775391"/>
      <use xlink:href="#DejaVuSans-6e" x="306.054688"/>
      <use xlink:href="#DejaVuSans-2c" x="369.433594"/>
      <use xlink:href="#DejaVuSans-20" x="401.220703"/>
      <use xlink:href="#DejaVuSans-50" x="433.007812"/>
      <use xlink:href="#DejaVuSans-61" x="488.810547"/>
      <use xlink:href="#DejaVuSans-76" x="550.089844"/>
      <use xlink:href="#DejaVuSans-65" x="609.269531"/>
      <use xlink:href="#DejaVuSans-6c" x="670.792969"/>
     </g>
    </g>
   </g>
   <g id="text_9">
    <g clip-path="url(#pb8dcd6a8d0)">
     <!-- Řehoř, Pavel -->
     <g style="opacity: 0.7" transform="translate(862.088081 596.449347) scale(0.12 -0.12)">
      <defs>
       <path id="DejaVuSans-158" d="M 2841 2188 
Q 3044 2119 3236 1894 
Q 3428 1669 3622 1275 
L 4263 0 
L 3584 0 
L 2988 1197 
Q 2756 1666 2539 1819 
Q 2322 1972 1947 1972 
L 1259 1972 
L 1259 0 
L 628 0 
L 628 4666 
L 2053 4666 
Q 2853 4666 3247 4331 
Q 3641 3997 3641 3322 
Q 3641 2881 3436 2590 
Q 3231 2300 2841 2188 
z
M 1259 4147 
L 1259 2491 
L 2053 2491 
Q 2509 2491 2742 2702 
Q 2975 2913 2975 3322 
Q 2975 3731 2742 3939 
Q 2509 4147 2053 4147 
L 1259 4147 
z
M 1698 5096 
L 1039 5927 
L 1473 5927 
L 1992 5371 
L 2511 5927 
L 2945 5927 
L 2286 5096 
L 1698 5096 
z
" transform="scale(0.015625)"/>
      </defs>
      <use xlink:href="#DejaVuSans-158"/>
      <use xlink:href="#DejaVuSans-65" x="64.982422"/>
      <use xlink:href="#DejaVuSans-68" x="126.505859"/>
      <use xlink:href="#DejaVuSans-6f" x="189.884766"/>
      <use xlink:href="#DejaVuSans-159" x="251.066406"/>
      <use xlink:href="#DejaVuSans-2c" x="292.179688"/>
      <use xlink:href="#DejaVuSans-20" x="323.966797"/>
      <use xlink:href="#DejaVuSans-50" x="355.753906"/>
      <use xlink:href="#DejaVuSans-61" x="411.556641"/>
      <use xlink:href="#DejaVuSans-76" x="472.835938"/>
      <use xlink:href="#DejaVuSans-65" x="532.015625"/>
      <use xlink:href="#DejaVuSans-6c" x="593.539062"/>
     </g>
    </g>
   </g>
   <g id="text_10">
    <g clip-path="url(#pb8dcd6a8d0)">
     <!-- Vladislav, Jan -->
     <g style="opacity: 0.7" transform="translate(859.359956 443.274886) scale(0.12 -0.12)">
      <defs>
       <path id="DejaVuSans-64" d="M 2906 2969 
L 2906 4863 
L 3481 4863 
L 3481 0 
L 2906 0 
L 2906 525 
Q 2725 213 2448 61 
Q 2172 -91 1784 -91 
Q 1150 -91 751 415 
Q 353 922 353 1747 
Q 353 2572 751 3078 
Q 1150 3584 1784 3584 
Q 2172 3584 2448 3432 
Q 2725 3281 2906 2969 
z
M 947 1747 
Q 947 1113 1208 752 
Q 1469 391 1925 391 
Q 2381 391 2643 752 
Q 2906 1113 2906 1747 
Q 2906 2381 2643 2742 
Q 2381 3103 1925 3103 
Q 1469 3103 1208 2742 
Q 947 2381 947 1747 
z
" transform="scale(0.015625)"/>
      </defs>
      <use xlink:href="#DejaVuSans-56"/>
      <use xlink:href="#DejaVuSans-6c" x="68.408203"/>
      <use xlink:href="#DejaVuSans-61" x="96.191406"/>
      <use xlink:href="#DejaVuSans-64" x="157.470703"/>
      <use xlink:href="#DejaVuSans-69" x="220.947266"/>
      <use xlink:href="#DejaVuSans-73" x="248.730469"/>
      <use xlink:href="#DejaVuSans-6c" x="300.830078"/>
      <use xlink:href="#DejaVuSans-61" x="328.613281"/>
      <use xlink:href="#DejaVuSans-76" x="389.892578"/>
      <use xlink:href="#DejaVuSans-2c" x="449.072266"/>
      <use xlink:href="#DejaVuSans-20" x="480.859375"/>
      <use xlink:href="#DejaVuSans-4a" x="512.646484"/>
      <use xlink:href="#DejaVuSans-61" x="542.138672"/>
      <use xlink:href="#DejaVuSans-6e" x="603.417969"/>
     </g>
    </g>
   </g>
   <g id="text_11">
    <g clip-path="url(#pb8dcd6a8d0)">
     <!-- Archa -->
     <g style="opacity: 0.7" transform="translate(190.417856 534.91125) scale(0.12 -0.12)">
      <use xlink:href="#DejaVuSans-41"/>
      <use xlink:href="#DejaVuSans-72" x="68.408203"/>
      <use xlink:href="#DejaVuSans-63" x="107.271484"/>
      <use xlink:href="#DejaVuSans-68" x="162.251953"/>
      <use xlink:href="#DejaVuSans-61" x="225.630859"/>
     </g>
    </g>
   </g>
   <g id="text_12">
    <g clip-path="url(#pb8dcd6a8d0)">
     <!-- České slovo -->
     <g style="opacity: 0.7" transform="translate(172.083169 229.456705) scale(0.12 -0.12)">
      <defs>
       <path id="DejaVuSans-10c" d="M 4122 4306 
L 4122 3641 
Q 3803 3938 3442 4084 
Q 3081 4231 2675 4231 
Q 1875 4231 1450 3742 
Q 1025 3253 1025 2328 
Q 1025 1406 1450 917 
Q 1875 428 2675 428 
Q 3081 428 3442 575 
Q 3803 722 4122 1019 
L 4122 359 
Q 3791 134 3420 21 
Q 3050 -91 2638 -91 
Q 1578 -91 968 557 
Q 359 1206 359 2328 
Q 359 3453 968 4101 
Q 1578 4750 2638 4750 
Q 3056 4750 3426 4639 
Q 3797 4528 4122 4306 
z
M 2250 5096 
L 1591 5927 
L 2025 5927 
L 2544 5371 
L 3063 5927 
L 3497 5927 
L 2838 5096 
L 2250 5096 
z
" transform="scale(0.015625)"/>
       <path id="DejaVuSans-e9" d="M 3597 1894 
L 3597 1613 
L 953 1613 
Q 991 1019 1311 708 
Q 1631 397 2203 397 
Q 2534 397 2845 478 
Q 3156 559 3463 722 
L 3463 178 
Q 3153 47 2828 -22 
Q 2503 -91 2169 -91 
Q 1331 -91 842 396 
Q 353 884 353 1716 
Q 353 2575 817 3079 
Q 1281 3584 2069 3584 
Q 2775 3584 3186 3129 
Q 3597 2675 3597 1894 
z
M 3022 2063 
Q 3016 2534 2758 2815 
Q 2500 3097 2075 3097 
Q 1594 3097 1305 2825 
Q 1016 2553 972 2059 
L 3022 2063 
z
M 2466 5119 
L 3088 5119 
L 2070 3944 
L 1591 3944 
L 2466 5119 
z
" transform="scale(0.015625)"/>
      </defs>
      <use xlink:href="#DejaVuSans-10c"/>
      <use xlink:href="#DejaVuSans-65" x="69.824219"/>
      <use xlink:href="#DejaVuSans-73" x="131.347656"/>
      <use xlink:href="#DejaVuSans-6b" x="183.447266"/>
      <use xlink:href="#DejaVuSans-e9" x="237.732422"/>
      <use xlink:href="#DejaVuSans-20" x="299.255859"/>
      <use xlink:href="#DejaVuSans-73" x="331.042969"/>
      <use xlink:href="#DejaVuSans-6c" x="383.142578"/>
      <use xlink:href="#DejaVuSans-6f" x="410.925781"/>
      <use xlink:href="#DejaVuSans-76" x="472.107422"/>
      <use xlink:href="#DejaVuSans-6f" x="531.287109"/>
     </g>
    </g>
   </g>
   <g id="text_13">
    <g clip-path="url(#pb8dcd6a8d0)">
     <!-- Listy -->
     <g style="opacity: 0.7" transform="translate(193.593169 596.002159) scale(0.12 -0.12)">
      <defs>
       <path id="DejaVuSans-4c" d="M 628 4666 
L 1259 4666 
L 1259 531 
L 3531 531 
L 3531 0 
L 628 0 
L 628 4666 
z
" transform="scale(0.015625)"/>
       <path id="DejaVuSans-79" d="M 2059 -325 
Q 1816 -950 1584 -1140 
Q 1353 -1331 966 -1331 
L 506 -1331 
L 506 -850 
L 844 -850 
Q 1081 -850 1212 -737 
Q 1344 -625 1503 -206 
L 1606 56 
L 191 3500 
L 800 3500 
L 1894 763 
L 2988 3500 
L 3597 3500 
L 2059 -325 
z
" transform="scale(0.015625)"/>
      </defs>
      <use xlink:href="#DejaVuSans-4c"/>
      <use xlink:href="#DejaVuSans-69" x="55.712891"/>
      <use xlink:href="#DejaVuSans-73" x="83.496094"/>
      <use xlink:href="#DejaVuSans-74" x="135.595703"/>
      <use xlink:href="#DejaVuSans-79" x="174.804688"/>
     </g>
    </g>
   </g>
   <g id="text_14">
    <g clip-path="url(#pb8dcd6a8d0)">
     <!-- Národní politika -->
     <g style="opacity: 0.7" transform="translate(160.399106 474.060341) scale(0.12 -0.12)">
      <defs>
       <path id="DejaVuSans-4e" d="M 628 4666 
L 1478 4666 
L 3547 763 
L 3547 4666 
L 4159 4666 
L 4159 0 
L 3309 0 
L 1241 3903 
L 1241 0 
L 628 0 
L 628 4666 
z
" transform="scale(0.015625)"/>
       <path id="DejaVuSans-e1" d="M 2194 1759 
Q 1497 1759 1228 1600 
Q 959 1441 959 1056 
Q 959 750 1161 570 
Q 1363 391 1709 391 
Q 2188 391 2477 730 
Q 2766 1069 2766 1631 
L 2766 1759 
L 2194 1759 
z
M 3341 1997 
L 3341 0 
L 2766 0 
L 2766 531 
Q 2569 213 2275 61 
Q 1981 -91 1556 -91 
Q 1019 -91 701 211 
Q 384 513 384 1019 
Q 384 1609 779 1909 
Q 1175 2209 1959 2209 
L 2766 2209 
L 2766 2266 
Q 2766 2663 2505 2880 
Q 2244 3097 1772 3097 
Q 1472 3097 1187 3025 
Q 903 2953 641 2809 
L 641 3341 
Q 956 3463 1253 3523 
Q 1550 3584 1831 3584 
Q 2591 3584 2966 3190 
Q 3341 2797 3341 1997 
z
M 2290 5119 
L 2912 5119 
L 1894 3944 
L 1415 3944 
L 2290 5119 
z
" transform="scale(0.015625)"/>
       <path id="DejaVuSans-70" d="M 1159 525 
L 1159 -1331 
L 581 -1331 
L 581 3500 
L 1159 3500 
L 1159 2969 
Q 1341 3281 1617 3432 
Q 1894 3584 2278 3584 
Q 2916 3584 3314 3078 
Q 3713 2572 3713 1747 
Q 3713 922 3314 415 
Q 2916 -91 2278 -91 
Q 1894 -91 1617 61 
Q 1341 213 1159 525 
z
M 3116 1747 
Q 3116 2381 2855 2742 
Q 2594 3103 2138 3103 
Q 1681 3103 1420 2742 
Q 1159 2381 1159 1747 
Q 1159 1113 1420 752 
Q 1681 391 2138 391 
Q 2594 391 2855 752 
Q 3116 1113 3116 1747 
z
" transform="scale(0.015625)"/>
      </defs>
      <use xlink:href="#DejaVuSans-4e"/>
      <use xlink:href="#DejaVuSans-e1" x="74.804688"/>
      <use xlink:href="#DejaVuSans-72" x="136.083984"/>
      <use xlink:href="#DejaVuSans-6f" x="174.947266"/>
      <use xlink:href="#DejaVuSans-64" x="236.128906"/>
      <use xlink:href="#DejaVuSans-6e" x="299.605469"/>
      <use xlink:href="#DejaVuSans-ed" x="362.984375"/>
      <use xlink:href="#DejaVuSans-20" x="390.767578"/>
      <use xlink:href="#DejaVuSans-70" x="422.554688"/>
      <use xlink:href="#DejaVuSans-6f" x="486.03125"/>
      <use xlink:href="#DejaVuSans-6c" x="547.212891"/>
      <use xlink:href="#DejaVuSans-69" x="574.996094"/>
      <use xlink:href="#DejaVuSans-74" x="602.779297"/>
      <use xlink:href="#DejaVuSans-69" x="641.988281"/>
      <use xlink:href="#DejaVuSans-6b" x="669.771484"/>
      <use xlink:href="#DejaVuSans-61" x="725.931641"/>
     </g>
    </g>
   </g>
   <g id="text_15">
    <g clip-path="url(#pb8dcd6a8d0)">
     <!-- Zvon -->
     <g style="opacity: 0.7" transform="translate(192.497231 290.547614) scale(0.12 -0.12)">
      <defs>
       <path id="DejaVuSans-5a" d="M 359 4666 
L 4025 4666 
L 4025 4184 
L 1075 531 
L 4097 531 
L 4097 0 
L 288 0 
L 288 481 
L 3238 4134 
L 359 4134 
L 359 4666 
z
" transform="scale(0.015625)"/>
      </defs>
      <use xlink:href="#DejaVuSans-5a"/>
      <use xlink:href="#DejaVuSans-76" x="68.505859"/>
      <use xlink:href="#DejaVuSans-6f" x="127.685547"/>
      <use xlink:href="#DejaVuSans-6e" x="188.867188"/>
     </g>
    </g>
   </g>
   <g id="text_16">
    <g clip-path="url(#pb8dcd6a8d0)">
     <!-- Nový život -->
     <g style="opacity: 0.7" transform="translate(176.072231 168.605795) scale(0.12 -0.12)">
      <defs>
       <path id="DejaVuSans-17e" d="M 353 3500 
L 3084 3500 
L 3084 2975 
L 922 459 
L 3084 459 
L 3084 0 
L 275 0 
L 275 525 
L 2438 3041 
L 353 3041 
L 353 3500 
z
M 1457 3944 
L 691 5119 
L 1126 5119 
L 1688 4353 
L 2251 5119 
L 2685 5119 
L 1919 3944 
L 1457 3944 
z
" transform="scale(0.015625)"/>
      </defs>
      <use xlink:href="#DejaVuSans-4e"/>
      <use xlink:href="#DejaVuSans-6f" x="74.804688"/>
      <use xlink:href="#DejaVuSans-76" x="135.986328"/>
      <use xlink:href="#DejaVuSans-fd" x="195.166016"/>
      <use xlink:href="#DejaVuSans-20" x="254.345703"/>
      <use xlink:href="#DejaVuSans-17e" x="286.132812"/>
      <use xlink:href="#DejaVuSans-69" x="338.623047"/>
      <use xlink:href="#DejaVuSans-76" x="366.40625"/>
      <use xlink:href="#DejaVuSans-6f" x="425.585938"/>
      <use xlink:href="#DejaVuSans-74" x="486.767578"/>
     </g>
    </g>
   </g>
   <g id="text_17">
    <g clip-path="url(#pb8dcd6a8d0)">
     <!-- Perspektivy -->
     <g style="opacity: 0.7" transform="translate(172.850981 260.002159) scale(0.12 -0.12)">
      <use xlink:href="#DejaVuSans-50"/>
      <use xlink:href="#DejaVuSans-65" x="56.677734"/>
      <use xlink:href="#DejaVuSans-72" x="118.201172"/>
      <use xlink:href="#DejaVuSans-73" x="159.314453"/>
      <use xlink:href="#DejaVuSans-70" x="211.414062"/>
      <use xlink:href="#DejaVuSans-65" x="274.890625"/>
      <use xlink:href="#DejaVuSans-6b" x="336.414062"/>
      <use xlink:href="#DejaVuSans-74" x="394.324219"/>
      <use xlink:href="#DejaVuSans-69" x="433.533203"/>
      <use xlink:href="#DejaVuSans-76" x="461.316406"/>
      <use xlink:href="#DejaVuSans-79" x="520.496094"/>
     </g>
    </g>
   </g>
   <g id="text_18">
    <g clip-path="url(#pb8dcd6a8d0)">
     <!-- Právo lidu -->
     <g style="opacity: 0.7" transform="translate(177.901294 504.365795) scale(0.12 -0.12)">
      <use xlink:href="#DejaVuSans-50"/>
      <use xlink:href="#DejaVuSans-72" x="58.552734"/>
      <use xlink:href="#DejaVuSans-e1" x="99.666016"/>
      <use xlink:href="#DejaVuSans-76" x="160.945312"/>
      <use xlink:href="#DejaVuSans-6f" x="220.125"/>
      <use xlink:href="#DejaVuSans-20" x="281.306641"/>
      <use xlink:href="#DejaVuSans-6c" x="313.09375"/>
      <use xlink:href="#DejaVuSans-69" x="340.876953"/>
      <use xlink:href="#DejaVuSans-64" x="368.660156"/>
      <use xlink:href="#DejaVuSans-75" x="432.136719"/>
     </g>
    </g>
   </g>
   <g id="text_19">
    <g clip-path="url(#pb8dcd6a8d0)">
     <!-- Proměny -->
     <g style="opacity: 0.7" transform="translate(181.226606 321.333068) scale(0.12 -0.12)">
      <defs>
       <path id="DejaVuSans-6d" d="M 3328 2828 
Q 3544 3216 3844 3400 
Q 4144 3584 4550 3584 
Q 5097 3584 5394 3201 
Q 5691 2819 5691 2113 
L 5691 0 
L 5113 0 
L 5113 2094 
Q 5113 2597 4934 2840 
Q 4756 3084 4391 3084 
Q 3944 3084 3684 2787 
Q 3425 2491 3425 1978 
L 3425 0 
L 2847 0 
L 2847 2094 
Q 2847 2600 2669 2842 
Q 2491 3084 2119 3084 
Q 1678 3084 1418 2786 
Q 1159 2488 1159 1978 
L 1159 0 
L 581 0 
L 581 3500 
L 1159 3500 
L 1159 2956 
Q 1356 3278 1631 3431 
Q 1906 3584 2284 3584 
Q 2666 3584 2933 3390 
Q 3200 3197 3328 2828 
z
" transform="scale(0.015625)"/>
      </defs>
      <use xlink:href="#DejaVuSans-50"/>
      <use xlink:href="#DejaVuSans-72" x="58.552734"/>
      <use xlink:href="#DejaVuSans-6f" x="97.416016"/>
      <use xlink:href="#DejaVuSans-6d" x="158.597656"/>
      <use xlink:href="#DejaVuSans-11b" x="256.009766"/>
      <use xlink:href="#DejaVuSans-6e" x="317.533203"/>
      <use xlink:href="#DejaVuSans-79" x="380.912109"/>
     </g>
    </g>
   </g>
   <g id="text_20">
    <g clip-path="url(#pb8dcd6a8d0)">
     <!-- Reportér -->
     <g style="opacity: 0.7" transform="translate(181.583794 443.514886) scale(0.12 -0.12)">
      <use xlink:href="#DejaVuSans-52"/>
      <use xlink:href="#DejaVuSans-65" x="64.982422"/>
      <use xlink:href="#DejaVuSans-70" x="126.505859"/>
      <use xlink:href="#DejaVuSans-6f" x="189.982422"/>
      <use xlink:href="#DejaVuSans-72" x="251.164062"/>
      <use xlink:href="#DejaVuSans-74" x="292.277344"/>
      <use xlink:href="#DejaVuSans-e9" x="331.486328"/>
      <use xlink:href="#DejaVuSans-72" x="393.009766"/>
     </g>
    </g>
   </g>
   <g id="text_21">
    <g clip-path="url(#pb8dcd6a8d0)">
     <!-- Sklizeň -->
     <g style="opacity: 0.7" transform="translate(186.371606 412.729432) scale(0.12 -0.12)">
      <defs>
       <path id="DejaVuSans-53" d="M 3425 4513 
L 3425 3897 
Q 3066 4069 2747 4153 
Q 2428 4238 2131 4238 
Q 1616 4238 1336 4038 
Q 1056 3838 1056 3469 
Q 1056 3159 1242 3001 
Q 1428 2844 1947 2747 
L 2328 2669 
Q 3034 2534 3370 2195 
Q 3706 1856 3706 1288 
Q 3706 609 3251 259 
Q 2797 -91 1919 -91 
Q 1588 -91 1214 -16 
Q 841 59 441 206 
L 441 856 
Q 825 641 1194 531 
Q 1563 422 1919 422 
Q 2459 422 2753 634 
Q 3047 847 3047 1241 
Q 3047 1584 2836 1778 
Q 2625 1972 2144 2069 
L 1759 2144 
Q 1053 2284 737 2584 
Q 422 2884 422 3419 
Q 422 4038 858 4394 
Q 1294 4750 2059 4750 
Q 2388 4750 2728 4690 
Q 3069 4631 3425 4513 
z
" transform="scale(0.015625)"/>
       <path id="DejaVuSans-7a" d="M 353 3500 
L 3084 3500 
L 3084 2975 
L 922 459 
L 3084 459 
L 3084 0 
L 275 0 
L 275 525 
L 2438 3041 
L 353 3041 
L 353 3500 
z
" transform="scale(0.015625)"/>
       <path id="DejaVuSans-148" d="M 3513 2113 
L 3513 0 
L 2938 0 
L 2938 2094 
Q 2938 2591 2744 2837 
Q 2550 3084 2163 3084 
Q 1697 3084 1428 2787 
Q 1159 2491 1159 1978 
L 1159 0 
L 581 0 
L 581 3500 
L 1159 3500 
L 1159 2956 
Q 1366 3272 1645 3428 
Q 1925 3584 2291 3584 
Q 2894 3584 3203 3211 
Q 3513 2838 3513 2113 
z
M 1809 3944 
L 1043 5119 
L 1478 5119 
L 2040 4353 
L 2603 5119 
L 3037 5119 
L 2271 3944 
L 1809 3944 
z
" transform="scale(0.015625)"/>
      </defs>
      <use xlink:href="#DejaVuSans-53"/>
      <use xlink:href="#DejaVuSans-6b" x="63.476562"/>
      <use xlink:href="#DejaVuSans-6c" x="121.386719"/>
      <use xlink:href="#DejaVuSans-69" x="149.169922"/>
      <use xlink:href="#DejaVuSans-7a" x="176.953125"/>
      <use xlink:href="#DejaVuSans-65" x="229.443359"/>
      <use xlink:href="#DejaVuSans-148" x="290.966797"/>
     </g>
    </g>
   </g>
   <g id="text_22">
    <g clip-path="url(#pb8dcd6a8d0)">
     <!-- Studie -->
     <g style="opacity: 0.7" transform="translate(188.500669 565.456705) scale(0.12 -0.12)">
      <use xlink:href="#DejaVuSans-53"/>
      <use xlink:href="#DejaVuSans-74" x="63.476562"/>
      <use xlink:href="#DejaVuSans-75" x="102.685547"/>
      <use xlink:href="#DejaVuSans-64" x="166.064453"/>
      <use xlink:href="#DejaVuSans-69" x="229.541016"/>
      <use xlink:href="#DejaVuSans-65" x="257.324219"/>
     </g>
    </g>
   </g>
   <g id="text_23">
    <g clip-path="url(#pb8dcd6a8d0)">
     <!-- Svědectví -->
     <g style="opacity: 0.7" transform="translate(178.209731 198.91125) scale(0.12 -0.12)">
      <use xlink:href="#DejaVuSans-53"/>
      <use xlink:href="#DejaVuSans-76" x="63.476562"/>
      <use xlink:href="#DejaVuSans-11b" x="122.65625"/>
      <use xlink:href="#DejaVuSans-64" x="184.179688"/>
      <use xlink:href="#DejaVuSans-65" x="247.65625"/>
      <use xlink:href="#DejaVuSans-63" x="309.179688"/>
      <use xlink:href="#DejaVuSans-74" x="364.160156"/>
      <use xlink:href="#DejaVuSans-76" x="403.369141"/>
      <use xlink:href="#DejaVuSans-ed" x="462.548828"/>
     </g>
    </g>
   </g>
   <g id="text_24">
    <g clip-path="url(#pb8dcd6a8d0)">
     <!-- Západ -->
     <g style="opacity: 0.7" transform="translate(188.550356 351.878523) scale(0.12 -0.12)">
      <use xlink:href="#DejaVuSans-5a"/>
      <use xlink:href="#DejaVuSans-e1" x="68.505859"/>
      <use xlink:href="#DejaVuSans-70" x="129.785156"/>
      <use xlink:href="#DejaVuSans-61" x="193.261719"/>
      <use xlink:href="#DejaVuSans-64" x="254.541016"/>
     </g>
    </g>
   </g>
   <g id="text_25">
    <g clip-path="url(#pb8dcd6a8d0)">
     <!-- Zápisník -->
     <g style="opacity: 0.7" transform="translate(182.300044 382.423977) scale(0.12 -0.12)">
      <use xlink:href="#DejaVuSans-5a"/>
      <use xlink:href="#DejaVuSans-e1" x="68.505859"/>
      <use xlink:href="#DejaVuSans-70" x="129.785156"/>
      <use xlink:href="#DejaVuSans-69" x="193.261719"/>
      <use xlink:href="#DejaVuSans-73" x="221.044922"/>
      <use xlink:href="#DejaVuSans-6e" x="273.144531"/>
      <use xlink:href="#DejaVuSans-ed" x="336.523438"/>
      <use xlink:href="#DejaVuSans-6b" x="364.306641"/>
     </g>
    </g>
   </g>
   <g id="text_26">
    <g clip-path="url(#pb8dcd6a8d0)">
     <!-- Zpravodaj -->
     <g style="opacity: 0.7" transform="translate(177.194419 137.820341) scale(0.12 -0.12)">
      <defs>
       <path id="DejaVuSans-6a" d="M 603 3500 
L 1178 3500 
L 1178 -63 
Q 1178 -731 923 -1031 
Q 669 -1331 103 -1331 
L -116 -1331 
L -116 -844 
L 38 -844 
Q 366 -844 484 -692 
Q 603 -541 603 -63 
L 603 3500 
z
M 603 4863 
L 1178 4863 
L 1178 4134 
L 603 4134 
L 603 4863 
z
" transform="scale(0.015625)"/>
      </defs>
      <use xlink:href="#DejaVuSans-5a"/>
      <use xlink:href="#DejaVuSans-70" x="68.505859"/>
      <use xlink:href="#DejaVuSans-72" x="131.982422"/>
      <use xlink:href="#DejaVuSans-61" x="173.095703"/>
      <use xlink:href="#DejaVuSans-76" x="234.375"/>
      <use xlink:href="#DejaVuSans-6f" x="293.554688"/>
      <use xlink:href="#DejaVuSans-64" x="354.736328"/>
      <use xlink:href="#DejaVuSans-61" x="418.212891"/>
      <use xlink:href="#DejaVuSans-6a" x="479.492188"/>
     </g>
    </g>
   </g>
   <g id="text_27">
    <!-- Přispívání autorů do exilových časopisů -->
    <g transform="translate(435.150937 80.4) scale(0.12 -0.12)">
     <defs>
      <path id="DejaVuSans-16f" d="M 544 1381 
L 544 3500 
L 1119 3500 
L 1119 1403 
Q 1119 906 1312 657 
Q 1506 409 1894 409 
Q 2359 409 2629 706 
Q 2900 1003 2900 1516 
L 2900 3500 
L 3475 3500 
L 3475 0 
L 2900 0 
L 2900 538 
Q 2691 219 2414 64 
Q 2138 -91 1772 -91 
Q 1169 -91 856 284 
Q 544 659 544 1381 
z
M 1991 3584 
L 1991 3584 
z
M 2459 4571 
Q 2459 4767 2321 4904 
Q 2184 5042 1984 5042 
Q 1781 5042 1645 4906 
Q 1509 4771 1509 4571 
Q 1509 4367 1645 4231 
Q 1781 4096 1984 4096 
Q 2184 4096 2321 4233 
Q 2459 4371 2459 4571 
z
M 2840 4571 
Q 2840 4211 2591 3961 
Q 2343 3711 1984 3711 
Q 1625 3711 1376 3961 
Q 1128 4211 1128 4571 
Q 1128 4930 1376 5178 
Q 1625 5427 1984 5427 
Q 2343 5427 2591 5178 
Q 2840 4930 2840 4571 
z
" transform="scale(0.015625)"/>
      <path id="DejaVuSans-78" d="M 3513 3500 
L 2247 1797 
L 3578 0 
L 2900 0 
L 1881 1375 
L 863 0 
L 184 0 
L 1544 1831 
L 300 3500 
L 978 3500 
L 1906 2253 
L 2834 3500 
L 3513 3500 
z
" transform="scale(0.015625)"/>
      <path id="DejaVuSans-10d" d="M 3122 3366 
L 3122 2828 
Q 2878 2963 2633 3030 
Q 2388 3097 2138 3097 
Q 1578 3097 1268 2742 
Q 959 2388 959 1747 
Q 959 1106 1268 751 
Q 1578 397 2138 397 
Q 2388 397 2633 464 
Q 2878 531 3122 666 
L 3122 134 
Q 2881 22 2623 -34 
Q 2366 -91 2075 -91 
Q 1284 -91 818 406 
Q 353 903 353 1747 
Q 353 2603 823 3093 
Q 1294 3584 2113 3584 
Q 2378 3584 2631 3529 
Q 2884 3475 3122 3366 
z
M 1801 3944 
L 1035 5119 
L 1470 5119 
L 2032 4353 
L 2595 5119 
L 3029 5119 
L 2263 3944 
L 1801 3944 
z
" transform="scale(0.015625)"/>
     </defs>
     <use xlink:href="#DejaVuSans-50"/>
     <use xlink:href="#DejaVuSans-159" x="58.552734"/>
     <use xlink:href="#DejaVuSans-69" x="99.666016"/>
     <use xlink:href="#DejaVuSans-73" x="127.449219"/>
     <use xlink:href="#DejaVuSans-70" x="179.548828"/>
     <use xlink:href="#DejaVuSans-ed" x="243.025391"/>
     <use xlink:href="#DejaVuSans-76" x="270.808594"/>
     <use xlink:href="#DejaVuSans-e1" x="329.988281"/>
     <use xlink:href="#DejaVuSans-6e" x="391.267578"/>
     <use xlink:href="#DejaVuSans-ed" x="454.646484"/>
     <use xlink:href="#DejaVuSans-20" x="482.429688"/>
     <use xlink:href="#DejaVuSans-61" x="514.216797"/>
     <use xlink:href="#DejaVuSans-75" x="575.496094"/>
     <use xlink:href="#DejaVuSans-74" x="638.875"/>
     <use xlink:href="#DejaVuSans-6f" x="678.083984"/>
     <use xlink:href="#DejaVuSans-72" x="739.265625"/>
     <use xlink:href="#DejaVuSans-16f" x="780.378906"/>
     <use xlink:href="#DejaVuSans-20" x="843.757812"/>
     <use xlink:href="#DejaVuSans-64" x="875.544922"/>
     <use xlink:href="#DejaVuSans-6f" x="939.021484"/>
     <use xlink:href="#DejaVuSans-20" x="1000.203125"/>
     <use xlink:href="#DejaVuSans-65" x="1031.990234"/>
     <use xlink:href="#DejaVuSans-78" x="1091.763672"/>
     <use xlink:href="#DejaVuSans-69" x="1150.943359"/>
     <use xlink:href="#DejaVuSans-6c" x="1178.726562"/>
     <use xlink:href="#DejaVuSans-6f" x="1206.509766"/>
     <use xlink:href="#DejaVuSans-76" x="1267.691406"/>
     <use xlink:href="#DejaVuSans-fd" x="1326.871094"/>
     <use xlink:href="#DejaVuSans-63" x="1386.050781"/>
     <use xlink:href="#DejaVuSans-68" x="1441.03125"/>
     <use xlink:href="#DejaVuSans-20" x="1504.410156"/>
     <use xlink:href="#DejaVuSans-10d" x="1536.197266"/>
     <use xlink:href="#DejaVuSans-61" x="1591.177734"/>
     <use xlink:href="#DejaVuSans-73" x="1652.457031"/>
     <use xlink:href="#DejaVuSans-6f" x="1704.556641"/>
     <use xlink:href="#DejaVuSans-70" x="1765.738281"/>
     <use xlink:href="#DejaVuSans-69" x="1829.214844"/>
     <use xlink:href="#DejaVuSans-73" x="1856.998047"/>
     <use xlink:href="#DejaVuSans-16f" x="1909.097656"/>
    </g>
   </g>
  </g>
 </g>
 <defs>
  <clipPath id="pb8dcd6a8d0">
   <rect x="135" y="86.4" width="837" height="554.4"/>
  </clipPath>
 </defs>
</svg>
